<?xml version="1.0" encoding="UTF-8"?><svg id="uuid-62a64ff6-da66-4843-b121-8e11088983e2" xmlns="http://www.w3.org/2000/svg" xmlns:xlink="http://www.w3.org/1999/xlink" viewBox="0 0 1024 1024"><defs><linearGradient id="uuid-04f544f0-d3c5-4294-9cdd-b9abef3b26be" x1="-14.34" y1="815.88" x2="1038.34" y2="208.12" gradientUnits="userSpaceOnUse"><stop offset="0" stop-color="#4a1574"/><stop offset="1" stop-color="#7b2ba8"/></linearGradient><clipPath id="uuid-60a8bf15-1947-4d1c-b5d1-998c125d79c4"><rect x="10.39" y="10.39" width="1003.22" height="1003.22" rx="189.47" ry="189.47" style="fill:none;"/></clipPath><linearGradient id="uuid-e21b4b48-0bc9-4ed2-9ad0-0c9fee17894f" x1="184.43" y1="633.73" x2="1268.71" y2="633.73" gradientUnits="userSpaceOnUse"><stop offset="0" stop-color="#000" stop-opacity=".24"/><stop offset="1" stop-color="#000" stop-opacity="0"/></linearGradient></defs><rect x="10.39" y="10.39" width="1003.22" height="1003.22" rx="211.68" ry="211.68" style="fill:url(#uuid-04f544f0-d3c5-4294-9cdd-b9abef3b26be);"/><g style="clip-path:url(#uuid-60a8bf15-1947-4d1c-b5d1-998c125d79c4);"><path d="M523.38,116.22c14.72,2.18,28.97,6.8,42.62,14.51l444.15,251.08,4.62,5.42,6.85,7.39c18.84,20.34,28.35,48.95,26.45,76.54-1.69,24.66-11.61,47.5-28.26,65.68-2.01,2.19-2.89,3.88-2.66,5.88.45,3.89,2.6,4.06,5.36,5.61l39.39,22.28,8.94,4.91,6.2,3.62c8.03,3.21,13.1,9.3,13.33,18.1l.57,22.29-.08,8.06c-.05,4.6-.26,8.03-3.42,11.27-6.62,6.79-25.94,3.54-28.39,5.45-2.09,1.63,3.12,3.46,9.08,6.89l6.89,3.97c2.57,1.48,4.64,2.6,7.1,3.99l7.02,3.99,7.01,3.97,7.07,3.99,6.99,3.98,7.01,3.85,7.28,4.28,6.97,3.98,7.05,4,7.02,3.97,7,3.92c11.89,6.65,23.71,13.43,35.65,20.15l6.98,3.93c4.75,2.67,9.49,5.61,14.1,8.1l7.11,3.85c6.68,3.62,15.37,8.41,21.41,12.29,3.02,1.94,10.49,4.88,12.25,10.12l6.49,19.33c7.07,21.03,9.3,42.88,10.86,65.08l.97,13.88c1.58,22.44-2.35,50.08-11.55,70.45-2.9.34-6.45,1.44-9.1.09l-14.24-7.23c-4.31-2.19-8.67-1.98-11.38,2.62-12.9,21.83-27.38,42.18-44.24,61.28l-22.94,22.93c-21.33,18.92-44.05,34.74-69.14,48.45l-50.39,25.3-34.92,18.13c-20.55,13.08-37.33,30.18-52,49.61l-9.13,3.79c-1.06-1.08-2.58-3.21-3.66-3.41-3.02.43-4.72-2.86-6.44-3.39-3.01-.94-4.9-2.73-7.22-3.97-7.1-3.81-14.09-7.92-21.19-11.89l-7.5-4.19-6.65-3.67c-2.36-1.3-5-2.82-7.39-4.2l-6.96-3.99-6.98-4c-2.52-1.44-4.67-2.67-7.07-4l-7.11-3.96c-4.87-2.71-9.73-5.4-14.6-8.1l-7.08-3.93-6.94-3.98c-2.52-1.44-4.62-2.71-7.02-4.03l-6.66-3.67-7.01-3.98-7-3.96-6.97-3.93-7.55-4.29c-2.57-1.46-4.62-2.5-7.2-3.95l-7.06-3.96-6.99-3.88-7.46-4.27-6.47-3.7-7.52-4.28-6.45-3.68-7.55-4.3-6.46-3.61-7.5-4.32c-2.56-1.48-4.66-2.54-7.28-3.97l-7.07-3.86c-4.84-2.64-9.67-5.72-14.38-8.28l-6.56-3.56-7.5-4.3-6.87-4.02-7.01-3.98-7.01-3.98-7.02-3.98c-4.96-2.81-9.85-5.36-14.73-8.13l-6.99-3.97-7.05-4.03-6.65-3.64-7.36-4.25-7.17-3.97c-2.3-1.28-4.14-2.44-6.47-3.73l-6.97-3.85-7.61-4.32-7.02-3.99-7.06-3.9-7.59-4.25-6.97-4.01c-2.26-1.3-4.19-2.43-6.5-3.71l-7.57-4.17-6.44-3.69c-2.73-1.56-4.93-2.4-7.69-4.55-1.49-1.16-4.97-1.1-5.88-3.72-8.47-10.98-16.82-21.26-27.33-30.67l-115.19-65.07c-18.06-10.2-34.24-21.54-50.42-34.32-20.27-16.01-37.33-34.17-53.21-54.47-1.53-1.32-4.67-3.65-6.34-4.56-2.59-1.41-5.66-.62-6.54-4.95-3.54,1.04-5.88-.55-7.01-3.75-3.42.61-6.12-.27-6.9-4.22-4.12,2.21-5.6-2.13-7.44-2.83-2.82-1.08-5.19-1.9-7.42-4.13-1.38-1.38-6.29-.19-6.19-4.91-4.04.96-6.24-.78-7.66-4.02-3.71.77-5.84-.89-7.02-3.78-5.34-13.06-8.81-26.37-10.32-40.48-.19-1.79-.83-3.31-1.83-4.19v-29.91c.83-.68,1.47-1.84,1.62-3.33,1.59-15.04,2.55-29.65,5.53-44.54,2.86-14.3,11.26-52.54,19.21-52.58,2.81-.01,4.21,1.04,6.16,3.49.99.75,3.54.77,5.16,1.31.32,3.59,4.65,2.84,6.1,4.21,1.74,1.64,4.55,2.73,6.93,4.1l7.45,4.27c2.31,1.33,4.83,2.74,6.95,3.92l7.12,3.95c2.52,1.4,4.65,2.65,7.04,4.01l6.98,3.97,7.04,4,7.1,3.96,7.48,4.24,6.56,3.74,7,3.88c4.73,2.62,9.61,5.48,14.49,8.24l7.02,3.96,7,4c2.28,1.3,4.79,2.66,6.96,3.89l7.01,3.99,7.11,3.95,7.54,4.27,6.99,3.92,7.04,4.03,6.99,3.93c4.76,2.68,9.58,5.37,14.2,8.02l6.96,3.99,7,3.92c5.3,2.97,11.79,7.38,14.85,8.17,1.46.38,2.79,4.31,5.73,2.87l.04-150.22c0-2.85,3.31-4.05,4.88-4.71,2.21-.93,4.59.46,7.06,1.86l303.77,171.74c2.69-1.94,3.75-4.59,4.63-7.43l-28.91-16.47c-2.68-1.53-5.17-2.68-5.74-5.68-.49-2.6.12-5.84,2.38-7.87l11.27-10.08-360.72-203.43c-5.5-3.1-8.64-5.92-8.45-12.89l.94-35.75c.13-5.03,3.08-11.17,8.61-11.23l99.6-1.05c2.33-2.97,1.17-6.43.86-9.78-.44-4.78-2-8.74-6.4-10.93-13.77-6.86-25.89-16.08-35.72-27.63-37.18-43.66-32.63-107.73,9.73-146.2,17.34-15.75,38.87-25.01,61.89-28.47h20.94Z" style="fill:url(#uuid-e21b4b48-0bc9-4ed2-9ad0-0c9fee17894f);"/></g><path d="M506.22,116.46c-30.83,1.83-59.83,17.11-78.96,41.72-41.17,52.79-23.6,128.27,37.15,159.01,5.67,2.84,6.95,4.94,7.87,12.17.82,6.31.55,8.78-1.19,9.61-.64.27,3.48.18-73.74.73-20.13.18-25.07.27-26.07.46-5.21,1.01-7.96,5.86-8.51,14.91-.37,4.67-.55,33.85-.27,35.22.91,5.12,4.76,8.78,10.34,9.88.64.09,15.1.18,46.39.09,39.34,0,45.56.09,45.93.27,1.46.73,2.65,3.29,3.02,6.5.09.82.37,8.42.73,16.93.27,8.42.55,15.37.64,15.46.09,0,87.04,53.75,87.04,53.75,0,0-.49-91.17,2.25-92.63.37-.18,6.59-.27,45.93-.27,41.63.09,45.56,0,46.75-.18,5.31-1.1,9.15-4.85,10.06-9.79.18-1.37,0-30.28-.27-35.13-.55-9.15-3.39-14-8.6-15-.91-.18-5.67-.27-25.34-.46-74.56-.46-73.83-.46-74.38-.73-1.74-.73-2.1-3.11-1.37-9.15.91-7.87,2.2-9.7,8.6-12.99,53.06-26.99,74.2-90.48,47.12-142.18-19.58-37.51-59.83-60.66-101.1-58.19M517.74,172.73c37.69,4.3,57.64,47.03,36.6,78.59-21.59,32.75-71.09,29.55-88.38-5.67-17.75-36.05,11.71-77.58,51.78-72.92ZM208.87,508.18c-4.3.73-11.62,21.5-17.47,49.68-1.74,8.33-2.1,10.8-4.12,28.09-4.67,39.8-3.2,63.4,5.49,88.56,3.93,11.62,5.67,13.63,9.79,11.71,1.65-.73,1.83-.91,10.7-10.43,4.67-5.12,8.6-9.24,8.69-9.24.37,0,6.95,8.97,8.69,11.8,30.74,51.51,61.39,84.54,106.95,115.09,21.96,14.73,32.39,20.49,78.22,42.73,13.45,6.59,25.89,12.72,27.72,13.72,22.87,12.26,42.63,29.92,60.11,53.52,2.93,4.03,3.57,4.3,8.33,4.3s5.49-.27,8.42-4.3c17.66-23.97,37.6-41.63,60.93-54.07,1.56-.73,13.36-6.59,26.35-12.9,40.99-19.94,49.4-24.34,67.15-35.41,51.42-32.11,85.82-67.79,118.57-122.78,1.65-2.74,8.23-11.71,8.6-11.71.09,0,4.03,4.12,8.78,9.24,8.78,9.51,8.97,9.7,10.61,10.43,4.21,1.92,5.86-.09,10.06-12.17,8.42-24.98,9.88-48.49,5.31-88.11-3.02-25.43-6.4-41.81-12.72-60.75-4.85-14.73-7.23-18.02-12.17-16.74-1.74.46-2.01.64-3.02,2.38-23.6,38.79-53.25,73.19-86.28,100.27-4.21,3.39-6.04,7.87-4.39,10.98,1.83,3.75,2.1,3.93,17.2,8.23,15.1,4.3,14.36,4.03,17.66,6.95q1.74,1.37.73,3.84c-3.11,7.5-6.04,11.71-15.28,21.87-32.48,35.68-75.02,62.58-109.24,69.17-15.83,3.02-29.19,3.02-38.88.09-8.22-2.48-24.81-16.5-30.89-39.63-6.72-25.56-2.5-60.32-2.5-60.37-.09,0-44.74,28.83-44.83,28.73-.18,0-8.69,5.21-22.69,14.09-12.35,7.78-22.42,14.09-22.42,14.09,0,0-.27,1.37-.64,2.93-6.04,29.92-26.35,44.92-56.91,42.09-25.53-2.38-45.84-10.06-72.92-27.54-26.35-17.02-56.72-45.93-64.41-61.21-2.93-5.95-3.11-6.59-1.46-7.96,3.39-3.02,2.84-2.84,17.66-7.04,14.18-4.12,13.91-3.93,15.64-5.76,4.12-4.48,2.93-8.97-3.75-14.55-32.94-27.26-61.94-61.12-85.18-99.27-.82-1.46-1.01-1.65-1.65-1.92-1.28-.55-3.48-.91-4.57-.73Z" style="fill:#f9b233; fill-rule:evenodd;"/><path d="M432.49,470.94c1.88-3.01,5.19-4.84,8.74-4.83l148.92,92.46c2.04,3.31,2.04,7.49,0,10.8l-148.92,92.46c-3.55,0-6.86-1.82-8.74-4.83v-186.05Z" style="fill:#f9b233;"/></svg>